<svg width="100" height="115" viewBox="0 0 100 115" fill="none" xmlns="http://www.w3.org/2000/svg">
<g filter="url(#filter0_d_4_82)">
<rect x="19.3535" y="15.5361" width="8" height="4" transform="rotate(-15 19.3535 15.5361)" fill="black"/>
<rect x="37.674" y="37.5443" width="7" height="4" transform="rotate(-15 37.674 37.5443)" fill="black"/>
<rect x="45.4707" y="39.5963" width="12" height="4" transform="rotate(-15 45.4707 39.5963)" fill="black"/>
<rect x="46.7698" y="102.4" width="42" height="4" transform="rotate(-15 46.7698 102.4)" fill="black"/>
<rect x="58.097" y="40.3542" width="11" height="4" transform="rotate(-15 58.097 40.3542)" fill="black"/>
<rect x="69.7576" y="41.3708" width="8" height="4" transform="rotate(-15 69.7576 41.3708)" fill="black"/>
<rect x="78.5203" y="43.164" width="4" height="4" transform="rotate(-15 78.5203 43.164)" fill="black"/>
<rect x="83.4192" y="45.9924" width="4" height="19" transform="rotate(-15 83.4192 45.9924)" fill="black"/>
<rect x="84.473" y="65.3803" width="4" height="15" transform="rotate(-15 84.473 65.3803)" fill="black"/>
<rect x="84.4917" y="80.9045" width="4" height="15" transform="rotate(-15 84.4917 80.9045)" fill="black"/>
<rect x="46.506" y="43.46" width="4" height="12" transform="rotate(-15 46.506 43.46)" fill="black"/>
<rect x="59.1323" y="44.2179" width="4" height="12" transform="rotate(-15 59.1323 44.2179)" fill="black"/>
<rect x="70.7928" y="45.2346" width="4" height="12" transform="rotate(-15 70.7928 45.2346)" fill="black"/>
<rect x="45.9933" y="99.5023" width="4" height="3" transform="rotate(-15 45.9933 99.5023)" fill="black"/>
<rect x="40.0591" y="92.8101" width="4" height="8" transform="rotate(-15 40.0591 92.8101)" fill="black"/>
<rect x="34.1249" y="86.118" width="4" height="8" transform="rotate(-15 34.1249 86.118)" fill="black"/>
<rect x="28.4493" y="80.3918" width="4" height="7" transform="rotate(-15 28.4493 80.3918)" fill="black"/>
<rect x="22.5151" y="73.6997" width="4" height="8" transform="rotate(-15 22.5151 73.6997)" fill="black"/>
<rect x="16.8397" y="67.9734" width="4" height="7" transform="rotate(-15 16.8397 67.9734)" fill="black"/>
<rect x="9.87012" y="57.4177" width="4" height="12" transform="rotate(-15 9.87012 57.4177)" fill="black"/>
<rect x="13.7339" y="56.3824" width="9" height="4" transform="rotate(-15 13.7339 56.3824)" fill="black"/>
<rect x="22.4966" y="58.1755" width="4" height="4" transform="rotate(-15 22.4966 58.1755)" fill="black"/>
<rect x="16.5251" y="20.4351" width="4" height="53" transform="rotate(-15 16.5251 20.4351)" fill="black"/>
<rect x="28.1162" y="17.3292" width="4" height="42" transform="rotate(-15 28.1162 17.3292)" fill="black"/>
<path d="M22.4965 58.1755L14.7691 60.2461L16.8396 67.9735L20.7033 66.9382L22.5151 73.6997L26.3788 72.6644L28.4493 80.3918L32.313 79.3565L34.1248 86.118L37.9885 85.0827L40.059 92.8102L43.9227 91.7749L45.9933 99.5023L49.857 98.467L50.6334 101.365L87.3386 91.5297L84.4916 80.9045L88.3553 79.8692L84.473 65.3803L88.3367 64.345L83.4192 45.9924L79.5555 47.0277L78.5202 43.164L74.6565 44.1993L77.7623 55.7904L74.8645 56.5669L70.7234 41.112L62.996 43.1826L66.1019 54.7737L62.2381 55.809L58.097 40.3542L50.3696 42.4247L53.4755 54.0158L50.5777 54.7923L46.4366 39.3375L38.7092 41.408L42.8503 56.8628L38.9866 57.8981L28.1162 17.3292L20.3888 19.3998L34.1062 70.5939L30.2425 71.6291L27.3955 61.0039L23.5318 62.0392L22.4965 58.1755Z" fill="#44FF27"/>
</g>
<defs>
<filter id="filter0_d_4_82" x="5.87012" y="13.4655" width="90.3676" height="100.798" filterUnits="userSpaceOnUse" color-interpolation-filters="sRGB">
<feFlood flood-opacity="0" result="BackgroundImageFix"/>
<feColorMatrix in="SourceAlpha" type="matrix" values="0 0 0 0 0 0 0 0 0 0 0 0 0 0 0 0 0 0 127 0" result="hardAlpha"/>
<feOffset dy="4"/>
<feGaussianBlur stdDeviation="2"/>
<feComposite in2="hardAlpha" operator="out"/>
<feColorMatrix type="matrix" values="0 0 0 0 0 0 0 0 0 0 0 0 0 0 0 0 0 0 0.25 0"/>
<feBlend mode="normal" in2="BackgroundImageFix" result="effect1_dropShadow_4_82"/>
<feBlend mode="normal" in="SourceGraphic" in2="effect1_dropShadow_4_82" result="shape"/>
</filter>
</defs>
</svg>
